# Created by FreeCAD <https://www.freecad.org>
v 14.400000 10.000000 0.000000
v 15.450000 19.000000 0.000000
v 15.450000 10.000000 0.000000
v -1.050000 19.000000 0.000000
v 0.000000 10.000000 0.000000
v 1.450000 8.200000 0.000000
v 12.950000 8.200000 0.000000
v -1.050000 10.000000 0.000000
v 1.450000 5.800000 0.000000
v 12.950000 5.800000 0.000000
v 14.400000 0.000000 0.000000
v 0.000000 0.000000 0.000000
v 1.450000 8.200000 -1.200000
v 12.950000 8.200000 -1.200000
v 14.400000 0.000000 15.700000
v 0.000000 0.000000 15.700000
v 0.000000 3.000000 14.200000
v 0.000000 10.000000 16.200001
v 0.000000 10.000000 14.200000
v 0.000000 0.500000 16.200001
v 0.000000 6.000000 2.000000
v 0.000000 10.000000 2.000000
v 0.000000 3.000000 3.000000
v 2.057143 0.250000 15.950000
v 14.400000 0.500000 16.200001
v 12.342857 0.250000 15.950000
v 1.450000 15.600000 16.200001
v -1.050000 10.000000 16.200001
v -1.050000 19.000000 16.200001
v 1.450000 19.000000 16.200001
v 14.400000 10.000000 16.200001
v 12.950000 15.600000 16.200001
v 15.450000 10.000000 16.200001
v 15.450000 19.000000 16.200001
v 12.950000 19.000000 16.200001
v 1.450000 16.600000 16.950001
v 12.950000 16.600000 16.950001
v 1.450000 15.600000 17.700001
v 12.950000 15.600000 17.700001
v 1.450000 5.600000 19.100000
v 12.950000 5.600000 19.100000
v 12.950000 7.800000 20.400000
v 1.450000 7.800000 20.400000
v 12.950000 5.600000 17.700001
v 1.450000 5.600000 17.700001
v 1.450000 8.200000 20.400000
v 12.950000 8.200000 20.400000
v 12.950000 8.200000 19.200001
v 1.450000 8.200000 19.200001
v 1.450000 19.000000 19.200001
v 12.950000 19.000000 19.200001
v 15.450000 19.000000 14.200000
v 15.450000 10.000000 14.200000
v 14.400000 10.000000 14.200000
v 14.400000 3.000000 14.200000
v -1.050000 19.000000 14.200000
v -1.050000 10.000000 14.200000
v -1.050000 19.000000 2.000000
v -1.050000 10.000000 2.000000
v 14.400000 6.000000 2.000000
v 14.400000 10.000000 2.000000
v 15.450000 19.000000 2.000000
v 15.450000 10.000000 2.000000
v 14.400000 3.000000 3.000000
v 1.450000 7.800000 -1.200000
v 12.950000 7.800000 -1.200000
v 10.075000 7.300000 -0.900000
v 4.325000 7.300000 -0.900000
vn 0.000000 0.000000 -1.000000
vn 0.000000 0.000000 -1.000000
vn 0.000000 0.000000 -1.000000
vn 0.000000 -0.000000 -1.000000
vn -0.000000 0.000000 -1.000000
vn 0.000000 0.000000 -1.000000
vn -0.000000 0.000000 -1.000000
vn 0.000000 0.000000 -1.000000
vn -0.000000 0.000000 -1.000000
vn 0.000000 -0.000000 -1.000000
vn 0.000000 0.000000 -1.000000
vn 0.000000 -0.000000 -1.000000
vn 0.000000 1.000000 0.000000
vn 0.000000 1.000000 0.000000
vn 0.000000 -1.000000 0.000000
vn 0.000000 -1.000000 0.000000
vn -1.000000 0.000000 0.000000
vn -1.000000 0.000000 0.000000
vn -1.000000 0.000000 0.000000
vn -1.000000 0.000000 0.000000
vn -1.000000 0.000000 0.000000
vn -1.000000 0.000000 0.000000
vn -1.000000 0.000000 0.000000
vn -1.000000 0.000000 0.000000
vn 0.000000 -0.707107 0.707106
vn 0.000000 -0.707108 0.707105
vn 0.000000 -0.707108 0.707105
vn -0.000000 -0.707107 0.707106
vn 0.000000 0.000000 1.000000
vn 0.000000 0.000000 1.000000
vn 0.000000 0.000000 1.000000
vn 0.000000 0.000000 1.000000
vn 0.000000 0.000000 1.000000
vn 0.000000 0.000000 1.000000
vn 0.000000 0.000000 1.000000
vn 0.000000 0.000000 1.000000
vn 0.000000 0.000000 1.000000
vn 0.000000 0.000000 1.000000
vn 0.000000 -0.600000 0.800000
vn 0.000000 -0.600000 0.800000
vn 0.000000 -0.600000 -0.800000
vn 0.000000 -0.600000 -0.800000
vn 0.000000 -0.508729 0.860927
vn 0.000000 -0.508729 0.860927
vn 0.000000 -1.000000 0.000000
vn 0.000000 -1.000000 0.000000
vn 0.000000 0.000000 1.000000
vn 0.000000 0.000000 1.000000
vn 0.000000 1.000000 0.000000
vn 0.000000 1.000000 0.000000
vn 0.000000 0.000000 1.000000
vn 0.000000 0.000000 1.000000
vn 0.000000 0.000000 -1.000000
vn 0.000000 0.000000 -1.000000
vn 0.000000 -0.000000 -1.000000
vn 0.000000 0.000000 -1.000000
vn 0.000000 0.000000 -1.000000
vn 0.000000 0.000000 -1.000000
vn 0.000000 0.000000 -1.000000
vn 0.000000 0.000000 -1.000000
vn 0.000000 0.000000 1.000000
vn 0.000000 0.000000 1.000000
vn 0.000000 0.000000 1.000000
vn 0.000000 0.000000 1.000000
vn 0.000000 0.000000 1.000000
vn 0.000000 0.000000 1.000000
vn 0.000000 -1.000000 0.000000
vn 0.000000 -1.000000 0.000000
vn 0.000000 -1.000000 0.000000
vn 0.000000 -1.000000 0.000000
vn 0.000000 -1.000000 0.000000
vn 0.000000 -1.000000 0.000000
vn 0.000000 -1.000000 0.000000
vn 0.000000 -1.000000 0.000000
vn -1.000000 0.000000 0.000000
vn -1.000000 0.000000 0.000000
vn -1.000000 0.000000 0.000000
vn -1.000000 0.000000 0.000000
vn 0.000000 1.000000 0.000000
vn 0.000000 1.000000 0.000000
vn 0.000000 1.000000 0.000000
vn 0.000000 1.000000 0.000000
vn 0.000000 1.000000 0.000000
vn 0.000000 1.000000 0.000000
vn 0.000000 1.000000 0.000000
vn 0.000000 1.000000 0.000000
vn 1.000000 0.000000 0.000000
vn 1.000000 -0.000000 0.000000
vn 1.000000 0.000000 0.000000
vn 1.000000 -0.000000 0.000000
vn 1.000000 -0.000000 0.000000
vn 1.000000 0.000000 0.000000
vn 1.000000 0.000000 0.000000
vn 1.000000 0.000000 0.000000
vn 1.000000 0.000000 0.000000
vn 1.000000 0.000000 0.000000
vn 1.000000 0.000000 0.000000
vn 1.000000 -0.000000 0.000000
vn -0.000000 0.316228 0.948683
vn 0.000000 0.316228 0.948683
vn 0.000000 1.000000 0.000000
vn 0.000000 1.000000 0.000000
vn 0.000000 -0.707107 0.707107
vn 0.000000 -0.707107 0.707107
vn -1.000000 0.000000 0.000000
vn -1.000000 0.000000 0.000000
vn -1.000000 0.000000 0.000000
vn -1.000000 0.000000 0.000000
vn -1.000000 0.000000 0.000000
vn -1.000000 0.000000 0.000000
vn -1.000000 0.000000 0.000000
vn -1.000000 0.000000 0.000000
vn -1.000000 0.000000 0.000000
vn -1.000000 0.000000 0.000000
vn 1.000000 -0.000000 0.000000
vn 1.000000 0.000000 0.000000
vn 1.000000 -0.000000 0.000000
vn 1.000000 -0.000000 0.000000
vn 1.000000 0.000000 0.000000
vn 1.000000 -0.000000 0.000000
vn 1.000000 0.000000 0.000000
vn 1.000000 0.000000 0.000000
vn 1.000000 0.000000 0.000000
vn 1.000000 0.000000 0.000000
vn -0.000000 -0.514496 -0.857493
vn -0.000000 -0.514496 -0.857493
vn 0.000000 -0.514496 -0.857493
vn -0.000000 -0.514496 -0.857493
vn 0.000000 -0.514496 -0.857493
vn 0.000000 -0.514496 -0.857493
vn 0.000000 0.000000 -1.000000
vn 0.000000 0.000000 -1.000000
f 1//1 2//1 3//1
f 4//2 2//2 1//2
f 5//3 4//3 1//3
f 6//4 5//4 1//4
f 6//5 1//5 7//5
f 8//6 4//6 5//6
f 9//7 10//7 11//7
f 12//8 9//8 11//8
f 1//9 11//9 10//9
f 1//10 10//10 7//10
f 12//11 5//11 6//11
f 12//12 6//12 9//12
f 7//13 13//13 6//13
f 7//14 14//14 13//14
f 12//15 15//15 16//15
f 11//16 15//16 12//16
f 17//17 18//17 19//17
f 20//18 18//18 17//18
f 16//19 20//19 17//19
f 21//20 22//20 5//20
f 23//21 16//21 17//21
f 12//22 23//22 21//22
f 12//23 21//23 5//23
f 12//24 16//24 23//24
f 24//25 20//25 16//25
f 25//26 20//26 26//26
f 26//27 20//27 24//27
f 15//28 25//28 26//28
f 27//29 28//29 18//29
f 29//30 28//30 27//30
f 30//31 29//31 27//31
f 31//32 18//32 20//32
f 31//33 20//33 25//33
f 31//34 27//34 18//34
f 32//35 31//35 33//35
f 32//36 27//36 31//36
f 34//37 35//37 32//37
f 34//38 32//38 33//38
f 36//39 27//39 32//39
f 36//40 32//40 37//40
f 38//41 36//41 37//41
f 38//42 37//42 39//42
f 40//43 41//43 42//43
f 43//44 40//44 42//44
f 44//45 41//45 40//45
f 44//46 40//46 45//46
f 42//47 46//47 43//47
f 47//48 46//48 42//48
f 47//49 48//49 49//49
f 47//50 49//50 46//50
f 48//51 50//51 49//51
f 51//52 50//52 48//52
f 45//53 39//53 44//53
f 38//54 39//54 45//54
f 52//55 53//55 54//55
f 19//56 54//56 55//56
f 19//57 55//57 17//57
f 56//58 19//58 57//58
f 56//59 52//59 54//59
f 56//60 54//60 19//60
f 58//61 59//61 22//61
f 60//62 22//62 21//62
f 61//63 58//63 22//63
f 61//64 22//64 60//64
f 62//65 61//65 63//65
f 62//66 58//66 61//66
f 19//67 18//67 28//67
f 19//68 28//68 57//68
f 5//69 22//69 59//69
f 5//70 59//70 8//70
f 3//71 63//71 61//71
f 3//72 61//72 1//72
f 53//73 33//73 31//73
f 53//74 31//74 54//74
f 57//75 28//75 29//75
f 57//76 29//76 56//76
f 59//77 58//77 4//77
f 8//78 59//78 4//78
f 2//79 4//79 58//79
f 62//80 2//80 58//80
f 30//81 56//81 29//81
f 35//82 56//82 30//82
f 52//83 56//83 35//83
f 34//84 52//84 35//84
f 51//85 30//85 50//85
f 51//86 35//86 30//86
f 63//87 3//87 2//87
f 63//88 2//88 62//88
f 33//89 53//89 52//89
f 33//90 52//90 34//90
f 60//91 1//91 61//91
f 11//92 60//92 64//92
f 11//93 1//93 60//93
f 55//94 54//94 31//94
f 15//95 64//95 55//95
f 15//96 11//96 64//96
f 25//97 15//97 55//97
f 25//98 55//98 31//98
f 21//99 64//99 60//99
f 21//100 23//100 64//100
f 55//101 23//101 17//101
f 55//102 64//102 23//102
f 16//103 15//103 26//103
f 16//104 26//104 24//104
f 36//105 50//105 30//105
f 38//106 50//106 36//106
f 27//107 36//107 30//107
f 49//108 43//108 46//108
f 40//109 43//109 49//109
f 45//110 40//110 49//110
f 38//111 45//111 49//111
f 49//112 50//112 38//112
f 65//113 6//113 13//113
f 9//114 6//114 65//114
f 37//115 35//115 51//115
f 32//116 35//116 37//116
f 39//117 37//117 51//117
f 42//118 48//118 47//118
f 41//119 48//119 42//119
f 41//120 44//120 48//120
f 44//121 39//121 48//121
f 51//122 48//122 39//122
f 7//123 66//123 14//123
f 10//124 66//124 7//124
f 67//125 66//125 10//125
f 9//126 68//126 67//126
f 9//127 65//127 68//127
f 9//128 67//128 10//128
f 65//129 66//129 68//129
f 68//130 66//130 67//130
f 65//131 14//131 66//131
f 13//132 14//132 65//132
