# Created by FreeCAD <https://www.freecad.org>
v 14.400000 10.000000 0.000000
v 15.450000 19.000000 0.000000
v 15.450000 10.000000 0.000000
v -1.050000 19.000000 0.000000
v 0.000000 10.000000 0.000000
v 1.450000 8.200000 0.000000
v 12.950000 8.200000 0.000000
v -1.050000 10.000000 0.000000
v 1.450000 5.800000 0.000000
v 12.950000 5.800000 0.000000
v 14.400000 0.000000 0.000000
v 0.000000 0.000000 0.000000
v -1.050000 19.000000 2.000000
v 15.450000 19.000000 2.000000
v 15.450000 10.000000 2.000000
v 14.400000 10.000000 2.000000
v 14.400000 3.000000 2.000000
v 14.400000 3.000000 14.200000
v 14.400000 10.000000 14.200000
v 14.400000 10.000000 16.200001
v 14.400000 0.000000 15.700000
v 14.400000 0.500000 16.200001
v 4.927741 0.000000 11.391935
v 0.000000 0.000000 15.700000
v 4.205957 0.000000 10.752491
v 3.658176 0.000000 9.958893
v 5.781580 0.000000 11.840065
v 3.316232 0.000000 9.057262
v 6.717853 0.000000 12.070835
v 3.200000 0.000000 8.100000
v 7.682147 0.000000 12.070835
v 8.618420 0.000000 11.840065
v 9.472259 0.000000 11.391935
v 10.194043 0.000000 10.752491
v 4.205957 -0.000000 5.447509
v 3.658176 -0.000000 6.241107
v 3.316232 -0.000000 7.142737
v 4.927741 -0.000000 4.808064
v 10.741824 0.000000 9.958893
v 5.781580 -0.000000 4.359935
v 11.083767 0.000000 9.057262
v 6.717853 -0.000000 4.129164
v 11.200000 0.000000 8.100000
v 11.083767 -0.000000 7.142737
v 10.741824 -0.000000 6.241107
v 10.194043 -0.000000 5.447509
v 9.472259 -0.000000 4.808064
v 8.618420 -0.000000 4.359935
v 7.682147 -0.000000 4.129164
v 0.000000 3.000000 14.200000
v 0.000000 10.000000 16.200001
v 0.000000 10.000000 14.200000
v 0.000000 0.500000 16.200001
v 0.000000 3.000000 2.000000
v 0.000000 10.000000 2.000000
v -1.050000 10.000000 2.000000
v 1.450000 7.800000 -1.200000
v 1.450000 8.200000 -1.200000
v 10.075000 7.300000 -0.900000
v 12.950000 7.800000 -1.200000
v 4.325000 7.300000 -0.900000
v 12.950000 8.200000 -1.200000
v 15.450000 19.000000 14.200000
v 15.450000 10.000000 14.200000
v -1.050000 19.000000 14.200000
v -1.050000 10.000000 14.200000
v 4.927741 3.000000 4.808064
v 4.205957 3.000000 5.447509
v 3.658176 3.000000 6.241107
v 5.781580 3.000000 4.359935
v 3.316232 3.000000 7.142737
v 6.717853 3.000000 4.129164
v 3.200000 3.000000 8.100000
v 3.316232 3.000000 9.057262
v 3.658176 3.000000 9.958893
v 4.205957 3.000000 10.752491
v 4.927741 3.000000 11.391935
v 9.472259 3.000000 4.808064
v 10.194043 3.000000 5.447509
v 8.618420 3.000000 4.359935
v 7.682147 3.000000 4.129164
v 10.741824 3.000000 6.241107
v 5.781580 3.000000 11.840065
v 11.083767 3.000000 7.142737
v 6.717853 3.000000 12.070835
v 11.200000 3.000000 8.100000
v 7.682147 3.000000 12.070835
v 8.618420 3.000000 11.840065
v 9.472259 3.000000 11.391935
v 10.194043 3.000000 10.752491
v 10.741824 3.000000 9.958893
v 11.083767 3.000000 9.057262
v 12.342857 0.250000 15.950000
v 1.450000 15.600000 16.200001
v -1.050000 10.000000 16.200001
v -1.050000 19.000000 16.200001
v 1.450000 19.000000 16.200001
v 12.950000 15.600000 16.200001
v 15.450000 10.000000 16.200001
v 15.450000 19.000000 16.200001
v 12.950000 19.000000 16.200001
v 2.057143 0.250000 15.950000
v 12.950000 19.000000 19.200001
v 1.450000 19.000000 19.200001
v 12.950000 16.600000 16.950001
v 12.950000 15.600000 17.700001
v 12.950000 7.800000 20.400000
v 12.950000 8.200000 19.200001
v 12.950000 8.200000 20.400000
v 12.950000 5.600000 19.100000
v 12.950000 5.600000 17.700001
v 1.450000 16.600000 16.950001
v 1.450000 15.600000 17.700001
v 1.450000 8.200000 19.200001
v 1.450000 7.800000 20.400000
v 1.450000 8.200000 20.400000
v 1.450000 5.600000 19.100000
v 1.450000 5.600000 17.700001
vn 0.000000 0.000000 -1.000000
vn 0.000000 0.000000 -1.000000
vn 0.000000 0.000000 -1.000000
vn 0.000000 -0.000000 -1.000000
vn -0.000000 0.000000 -1.000000
vn 0.000000 0.000000 -1.000000
vn -0.000000 0.000000 -1.000000
vn 0.000000 0.000000 -1.000000
vn -0.000000 0.000000 -1.000000
vn 0.000000 -0.000000 -1.000000
vn 0.000000 0.000000 -1.000000
vn 0.000000 -0.000000 -1.000000
vn 0.000000 1.000000 0.000000
vn 0.000000 1.000000 0.000000
vn 1.000000 0.000000 0.000000
vn 1.000000 -0.000000 0.000000
vn 0.000000 -1.000000 0.000000
vn 0.000000 -1.000000 0.000000
vn 1.000000 -0.000000 0.000000
vn 1.000000 0.000000 0.000000
vn 1.000000 0.000000 0.000000
vn 1.000000 0.000000 0.000000
vn 1.000000 0.000000 0.000000
vn 1.000000 0.000000 0.000000
vn 1.000000 -0.000000 0.000000
vn 0.000000 -1.000000 0.000000
vn 0.000000 -1.000000 0.000000
vn 0.000000 -1.000000 -0.000000
vn 0.000000 -1.000000 0.000000
vn 0.000000 -1.000000 -0.000000
vn 0.000000 -1.000000 0.000000
vn -0.000000 -1.000000 -0.000000
vn -0.000000 -1.000000 -0.000000
vn -0.000000 -1.000000 -0.000000
vn -0.000000 -1.000000 -0.000000
vn -0.000000 -1.000000 0.000000
vn -0.000000 -1.000000 0.000000
vn -0.000000 -1.000000 0.000000
vn -0.000000 -1.000000 0.000000
vn 0.000000 -1.000000 0.000000
vn -0.000000 -1.000000 0.000000
vn -0.000000 -1.000000 0.000000
vn -0.000000 -1.000000 -0.000000
vn -0.000000 -1.000000 0.000000
vn -0.000000 -1.000000 -0.000000
vn -0.000000 -1.000000 0.000000
vn 0.000000 -1.000000 0.000000
vn 0.000000 -1.000000 0.000000
vn 0.000000 -1.000000 0.000000
vn 0.000000 -1.000000 0.000000
vn 0.000000 -1.000000 -0.000000
vn 0.000000 -1.000000 -0.000000
vn 0.000000 -1.000000 -0.000000
vn -0.000000 -1.000000 -0.000000
vn -0.000000 -1.000000 0.000000
vn -1.000000 0.000000 0.000000
vn -1.000000 0.000000 0.000000
vn -1.000000 0.000000 0.000000
vn -1.000000 0.000000 0.000000
vn -1.000000 0.000000 0.000000
vn -1.000000 0.000000 0.000000
vn -1.000000 0.000000 0.000000
vn 0.000000 -1.000000 0.000000
vn 0.000000 -1.000000 0.000000
vn -1.000000 0.000000 0.000000
vn -1.000000 0.000000 0.000000
vn -1.000000 0.000000 0.000000
vn -1.000000 0.000000 0.000000
vn -0.000000 -0.514496 -0.857493
vn -0.000000 -0.514496 -0.857493
vn 0.000000 -0.514496 -0.857493
vn -0.000000 -0.514496 -0.857493
vn 1.000000 0.000000 0.000000
vn 1.000000 0.000000 0.000000
vn 0.000000 1.000000 0.000000
vn 0.000000 1.000000 0.000000
vn 0.000000 0.000000 1.000000
vn 0.000000 0.000000 1.000000
vn 0.000000 0.000000 1.000000
vn 0.000000 0.000000 1.000000
vn 0.000000 0.000000 1.000000
vn 0.000000 0.000000 1.000000
vn 0.000000 -0.000000 -1.000000
vn 0.000000 0.000000 -1.000000
vn 0.000000 0.000000 -1.000000
vn 0.000000 0.000000 -1.000000
vn 0.000000 0.000000 -1.000000
vn 0.000000 0.000000 -1.000000
vn 0.000000 1.000000 0.000000
vn 0.000000 1.000000 0.000000
vn 0.000000 1.000000 0.000000
vn 0.000000 1.000000 0.000000
vn 0.000000 1.000000 0.000000
vn 0.000000 1.000000 0.000000
vn 0.000000 1.000000 0.000000
vn 0.000000 1.000000 0.000000
vn 0.000000 1.000000 0.000000
vn 0.000000 1.000000 0.000000
vn 0.000000 1.000000 0.000000
vn 0.000000 1.000000 0.000000
vn 0.000000 1.000000 0.000000
vn 0.000000 1.000000 0.000000
vn 0.000000 1.000000 0.000000
vn 0.000000 1.000000 0.000000
vn 0.000000 1.000000 0.000000
vn 0.000000 1.000000 0.000000
vn 0.000000 1.000000 0.000000
vn 0.000000 1.000000 0.000000
vn 0.000000 1.000000 0.000000
vn 0.000000 1.000000 0.000000
vn 0.000000 1.000000 0.000000
vn 0.000000 1.000000 0.000000
vn 0.000000 1.000000 0.000000
vn 0.000000 1.000000 0.000000
vn 0.000000 1.000000 0.000000
vn 0.000000 1.000000 0.000000
vn 0.000000 1.000000 0.000000
vn 0.000000 1.000000 0.000000
vn -0.000000 -0.707107 0.707106
vn 0.000000 0.000000 1.000000
vn 0.000000 0.000000 1.000000
vn 0.000000 0.000000 1.000000
vn 0.000000 0.000000 1.000000
vn 0.000000 0.000000 1.000000
vn 0.000000 0.000000 1.000000
vn 0.000000 0.000000 1.000000
vn 0.000000 0.000000 1.000000
vn 0.000000 0.000000 1.000000
vn 0.000000 0.000000 1.000000
vn 0.000000 -1.000000 0.000000
vn 0.000000 -1.000000 0.000000
vn 0.000000 -0.707107 0.707107
vn 0.000000 -0.707107 0.707107
vn 0.992709 0.000000 -0.120537
vn 0.992709 0.000000 -0.120537
vn 0.935016 -0.000000 -0.354605
vn 0.822984 0.000000 -0.568065
vn 0.935016 0.000000 -0.354605
vn 0.822984 -0.000000 -0.568065
vn 0.663122 -0.000000 -0.748511
vn 0.663122 0.000000 -0.748511
vn 0.464723 -0.000000 -0.885456
vn 0.464723 0.000000 -0.885456
vn 0.239315 -0.000000 -0.970942
vn 0.239315 0.000000 -0.970942
vn 0.000000 0.000000 -1.000000
vn 0.000000 0.000000 -1.000000
vn -0.239315 -0.000000 -0.970942
vn -0.464724 0.000000 -0.885456
vn -0.239315 -0.000000 -0.970942
vn -0.663122 0.000000 -0.748511
vn -0.464724 -0.000000 -0.885456
vn -0.663122 0.000000 -0.748511
vn -0.822984 -0.000000 -0.568065
vn -0.822984 -0.000000 -0.568065
vn -0.935016 -0.000000 -0.354604
vn -0.935016 -0.000000 -0.354604
vn -0.992709 0.000000 -0.120537
vn -0.992709 0.000000 -0.120537
vn -0.992709 0.000000 0.120537
vn -0.992709 -0.000000 0.120537
vn -0.935016 0.000000 0.354604
vn -0.935016 0.000000 0.354604
vn -0.822984 0.000000 0.568065
vn -0.822984 -0.000000 0.568065
vn -0.663122 0.000000 0.748511
vn -0.663122 0.000000 0.748511
vn -0.464724 0.000000 0.885456
vn -0.464724 0.000000 0.885456
vn -0.239316 0.000000 0.970942
vn -0.239316 0.000000 0.970942
vn 0.000000 -0.000000 1.000000
vn 0.000000 0.000000 1.000000
vn 0.239316 0.000000 0.970942
vn 0.239316 0.000000 0.970942
vn 0.464723 0.000000 0.885456
vn 0.464723 0.000000 0.885456
vn 0.663123 0.000000 0.748511
vn 0.663123 -0.000000 0.748511
vn 0.822984 0.000000 0.568065
vn 0.822984 0.000000 0.568065
vn 0.935016 -0.000000 0.354605
vn 0.935016 0.000000 0.354605
vn 0.992709 -0.000000 0.120537
vn 0.992709 0.000000 0.120537
vn 0.000000 -1.000000 0.000000
vn 0.000000 -1.000000 0.000000
vn 0.000000 -0.707107 0.707106
vn 0.000000 0.000000 -1.000000
vn 0.000000 0.000000 -1.000000
vn 0.000000 -0.514496 -0.857493
vn 0.000000 -0.514496 -0.857493
vn -1.000000 0.000000 0.000000
vn -1.000000 0.000000 0.000000
vn 0.000000 1.000000 0.000000
vn 0.000000 1.000000 0.000000
vn 0.000000 1.000000 0.000000
vn 0.000000 1.000000 0.000000
vn 0.000000 1.000000 0.000000
vn 0.000000 1.000000 0.000000
vn 1.000000 0.000000 0.000000
vn 1.000000 -0.000000 0.000000
vn 0.000000 -0.707108 0.707105
vn 0.000000 -0.707108 0.707105
vn 1.000000 -0.000000 0.000000
vn 1.000000 0.000000 0.000000
vn 1.000000 -0.000000 0.000000
vn 1.000000 -0.000000 0.000000
vn 1.000000 0.000000 0.000000
vn 1.000000 -0.000000 0.000000
vn 1.000000 0.000000 0.000000
vn 1.000000 0.000000 0.000000
vn 0.000000 -0.600000 0.800000
vn 0.000000 -0.600000 0.800000
vn -1.000000 0.000000 0.000000
vn -1.000000 0.000000 0.000000
vn -1.000000 0.000000 0.000000
vn -1.000000 0.000000 0.000000
vn -1.000000 0.000000 0.000000
vn -1.000000 0.000000 0.000000
vn -1.000000 0.000000 0.000000
vn -1.000000 0.000000 0.000000
vn 0.000000 0.000000 1.000000
vn 0.000000 0.000000 1.000000
vn 0.000000 -1.000000 0.000000
vn 0.000000 -1.000000 0.000000
vn 0.000000 0.000000 -1.000000
vn 0.000000 0.000000 -1.000000
vn 0.000000 -0.600000 -0.800000
vn 0.000000 -0.600000 -0.800000
vn 0.000000 1.000000 0.000000
vn 0.000000 1.000000 0.000000
vn 0.000000 0.000000 1.000000
vn 0.000000 0.000000 1.000000
vn 0.000000 -0.508729 0.860927
vn 0.000000 -0.508729 0.860927
f 1//1 2//1 3//1
f 4//2 2//2 1//2
f 5//3 4//3 1//3
f 6//4 5//4 1//4
f 6//5 1//5 7//5
f 8//6 4//6 5//6
f 9//7 10//7 11//7
f 12//8 9//8 11//8
f 1//9 11//9 10//9
f 1//10 10//10 7//10
f 12//11 5//11 6//11
f 12//12 6//12 9//12
f 2//13 4//13 13//13
f 14//14 2//14 13//14
f 15//15 3//15 2//15
f 15//16 2//16 14//16
f 3//17 15//17 16//17
f 3//18 16//18 1//18
f 17//19 1//19 16//19
f 11//20 1//20 17//20
f 18//21 19//21 20//21
f 21//22 17//22 18//22
f 21//23 11//23 17//23
f 22//24 21//24 18//24
f 22//25 18//25 20//25
f 23//26 24//26 25//26
f 26//27 25//27 24//27
f 27//28 24//28 23//28
f 28//29 26//29 24//29
f 29//30 24//30 27//30
f 30//31 28//31 24//31
f 21//32 29//32 31//32
f 21//33 31//33 32//33
f 21//34 32//34 33//34
f 21//35 24//35 29//35
f 34//36 21//36 33//36
f 12//37 35//37 36//37
f 12//38 36//38 37//38
f 12//39 37//39 30//39
f 12//40 30//40 24//40
f 38//41 35//41 12//41
f 39//42 21//42 34//42
f 40//43 38//43 12//43
f 41//44 21//44 39//44
f 42//45 40//45 12//45
f 43//46 21//46 41//46
f 11//47 43//47 44//47
f 11//48 44//48 45//48
f 11//49 45//49 46//49
f 11//50 46//50 47//50
f 11//51 47//51 48//51
f 11//52 48//52 49//52
f 11//53 49//53 42//53
f 11//54 42//54 12//54
f 11//55 21//55 43//55
f 50//56 51//56 52//56
f 53//57 51//57 50//57
f 24//58 53//58 50//58
f 54//59 55//59 5//59
f 54//60 24//60 50//60
f 12//61 54//61 5//61
f 12//62 24//62 54//62
f 5//63 55//63 56//63
f 5//64 56//64 8//64
f 56//65 13//65 4//65
f 8//66 56//66 4//66
f 57//67 6//67 58//67
f 9//68 6//68 57//68
f 59//69 60//69 10//69
f 9//70 61//70 59//70
f 9//71 57//71 61//71
f 9//72 59//72 10//72
f 7//73 60//73 62//73
f 10//74 60//74 7//74
f 7//75 58//75 6//75
f 7//76 62//76 58//76
f 17//77 55//77 54//77
f 13//78 56//78 55//78
f 16//79 13//79 55//79
f 16//80 55//80 17//80
f 14//81 16//81 15//81
f 14//82 13//82 16//82
f 63//83 64//83 19//83
f 52//84 19//84 18//84
f 52//85 18//85 50//85
f 65//86 52//86 66//86
f 65//87 63//87 19//87
f 65//88 19//88 52//88
f 67//89 54//89 68//89
f 69//90 68//90 54//90
f 70//91 54//91 67//91
f 71//92 69//92 54//92
f 72//93 54//93 70//93
f 73//94 71//94 54//94
f 50//95 74//95 73//95
f 50//96 75//96 74//96
f 50//97 73//97 54//97
f 76//98 75//98 50//98
f 77//99 76//99 50//99
f 17//100 78//100 79//100
f 17//101 80//101 78//101
f 17//102 81//102 80//102
f 17//103 72//103 81//103
f 17//104 54//104 72//104
f 82//105 17//105 79//105
f 83//106 77//106 50//106
f 84//107 17//107 82//107
f 85//108 83//108 50//108
f 86//109 17//109 84//109
f 18//110 87//110 85//110
f 18//111 88//111 87//111
f 18//112 89//112 88//112
f 18//113 90//113 89//113
f 18//114 91//114 90//114
f 18//115 92//115 91//115
f 18//116 86//116 92//116
f 18//117 85//117 50//117
f 18//118 17//118 86//118
f 21//119 22//119 93//119
f 94//120 95//120 51//120
f 96//121 95//121 94//121
f 97//122 96//122 94//122
f 20//123 51//123 53//123
f 20//124 53//124 22//124
f 20//125 94//125 51//125
f 98//126 20//126 99//126
f 98//127 94//127 20//127
f 100//128 101//128 98//128
f 100//129 98//129 99//129
f 64//130 99//130 20//130
f 64//131 20//131 19//131
f 24//132 21//132 93//132
f 24//133 93//133 102//133
f 73//134 74//134 30//134
f 30//135 74//135 28//135
f 28//136 75//136 26//136
f 26//137 75//137 25//137
f 74//138 75//138 28//138
f 75//139 76//139 25//139
f 25//140 77//140 23//140
f 76//141 77//141 25//141
f 23//142 83//142 27//142
f 77//143 83//143 23//143
f 27//144 85//144 29//144
f 83//145 85//145 27//145
f 29//146 87//146 31//146
f 85//147 87//147 29//147
f 31//148 88//148 32//148
f 32//149 88//149 33//149
f 87//150 88//150 31//150
f 33//151 89//151 34//151
f 88//152 89//152 33//152
f 89//153 90//153 34//153
f 90//154 91//154 34//154
f 34//155 91//155 39//155
f 91//156 92//156 39//156
f 39//157 92//157 41//157
f 41//158 92//158 43//158
f 92//159 86//159 43//159
f 43//160 86//160 44//160
f 86//161 84//161 44//161
f 84//162 82//162 44//162
f 44//163 82//163 45//163
f 45//164 82//164 46//164
f 82//165 79//165 46//165
f 79//166 78//166 46//166
f 46//167 78//167 47//167
f 78//168 80//168 47//168
f 47//169 80//169 48//169
f 80//170 81//170 48//170
f 48//171 81//171 49//171
f 49//172 81//172 42//172
f 81//173 72//173 42//173
f 72//174 70//174 42//174
f 42//175 70//175 40//175
f 70//176 67//176 40//176
f 40//177 67//177 38//177
f 67//178 68//178 38//178
f 38//179 68//179 35//179
f 68//180 69//180 35//180
f 35//181 69//181 36//181
f 36//182 69//182 37//182
f 69//183 71//183 37//183
f 37//184 73//184 30//184
f 71//185 73//185 37//185
f 52//186 51//186 95//186
f 52//187 95//187 66//187
f 102//188 53//188 24//188
f 57//189 62//189 60//189
f 58//190 62//190 57//190
f 57//191 60//191 61//191
f 61//192 60//192 59//192
f 66//193 95//193 96//193
f 66//194 96//194 65//194
f 97//195 65//195 96//195
f 101//196 65//196 97//196
f 63//197 65//197 101//197
f 100//198 63//198 101//198
f 103//199 97//199 104//199
f 103//200 101//200 97//200
f 99//201 64//201 63//201
f 99//202 63//202 100//202
f 22//203 53//203 93//203
f 93//204 53//204 102//204
f 105//205 101//205 103//205
f 98//206 101//206 105//206
f 106//207 105//207 103//207
f 107//208 108//208 109//208
f 110//209 108//209 107//209
f 110//210 111//210 108//210
f 111//211 106//211 108//211
f 103//212 108//212 106//212
f 112//213 94//213 98//213
f 112//214 98//214 105//214
f 112//215 104//215 97//215
f 113//216 104//216 112//216
f 94//217 112//217 97//217
f 114//218 115//218 116//218
f 117//219 115//219 114//219
f 118//220 117//220 114//220
f 113//221 118//221 114//221
f 114//222 104//222 113//222
f 108//223 104//223 114//223
f 103//224 104//224 108//224
f 111//225 110//225 117//225
f 111//226 117//226 118//226
f 118//227 106//227 111//227
f 113//228 106//228 118//228
f 113//229 112//229 105//229
f 113//230 105//230 106//230
f 109//231 108//231 114//231
f 109//232 114//232 116//232
f 107//233 116//233 115//233
f 109//234 116//234 107//234
f 117//235 110//235 107//235
f 115//236 117//236 107//236
