# Created by FreeCAD <https://www.freecad.org>
v 14.400000 0.000000 15.700000
v 14.400000 0.000000 0.000000
v 14.400000 10.000000 0.000000
v 14.400000 10.000000 16.200001
v 14.400000 0.500000 16.200001
v 15.450000 19.000000 0.000000
v 15.450000 10.000000 0.000000
v 1.450000 5.800000 0.000000
v 0.000000 0.000000 0.000000
v 12.950000 5.800000 0.000000
v 1.450000 8.200000 0.000000
v 12.950000 8.200000 0.000000
v 0.000000 10.000000 0.000000
v -1.050000 19.000000 0.000000
v -1.050000 10.000000 0.000000
v 5.296983 0.000000 13.431995
v 0.000000 0.000000 15.700000
v 4.692489 0.000000 12.896461
v 4.233722 0.000000 12.231823
v 6.012074 0.000000 13.807304
v 3.947345 0.000000 11.476707
v 6.796202 0.000000 14.000575
v 3.850000 0.000000 10.675000
v 7.603798 0.000000 14.000575
v 9.707511 0.000000 12.896461
v 10.166278 0.000000 12.231823
v 9.103017 0.000000 13.431995
v 8.387926 0.000000 13.807304
v 10.452655 0.000000 11.476707
v 10.550000 0.000000 10.675000
v 3.947345 0.000000 4.223292
v 3.850000 0.000000 5.025000
v 4.233722 0.000000 3.468177
v 4.692489 0.000000 2.803539
v 5.296983 0.000000 2.268004
v 6.012074 0.000000 1.892696
v 6.796202 0.000000 1.699425
v 7.603798 0.000000 1.699425
v 10.550000 0.000000 5.025000
v 8.387926 0.000000 1.892696
v 9.103017 0.000000 2.268004
v 9.707511 0.000000 2.803539
v 10.166278 0.000000 3.468177
v 10.452655 0.000000 4.223292
v 12.342857 0.250000 15.950000
v 1.450000 15.600000 16.200001
v -1.050000 10.000000 16.200001
v 0.000000 10.000000 16.200001
v -1.050000 19.000000 16.200001
v 1.450000 19.000000 16.200001
v 0.000000 0.500000 16.200001
v 12.950000 15.600000 16.200001
v 15.450000 10.000000 16.200001
v 15.450000 19.000000 16.200001
v 12.950000 19.000000 16.200001
v 5.296983 19.000000 2.268004
v 4.692489 19.000000 2.803539
v 4.233722 19.000000 3.468177
v 6.012074 19.000000 1.892696
v 3.947345 19.000000 4.223292
v 6.796202 19.000000 1.699425
v 3.850000 19.000000 5.025000
v 7.603798 19.000000 1.699425
v 3.850000 19.000000 10.675000
v 3.947345 19.000000 11.476707
v 8.387926 19.000000 1.892696
v 9.103017 19.000000 2.268004
v 9.707511 19.000000 2.803539
v 10.166278 19.000000 3.468177
v 10.452655 19.000000 4.223292
v 10.550000 19.000000 5.025000
v 4.692489 19.000000 12.896461
v 4.233722 19.000000 12.231823
v 5.296983 19.000000 13.431995
v 6.012074 19.000000 13.807304
v 1.450000 19.000000 19.200001
v 6.796202 19.000000 14.000575
v 10.550000 19.000000 10.675000
v 7.603798 19.000000 14.000575
v 10.452655 19.000000 11.476707
v 10.166278 19.000000 12.231823
v 9.707511 19.000000 12.896461
v 9.103017 19.000000 13.431995
v 8.387926 19.000000 13.807304
v 12.950000 19.000000 19.200001
v 1.450000 7.800000 -1.200000
v 1.450000 8.200000 -1.200000
v 10.075000 7.300000 -0.900000
v 12.950000 7.800000 -1.200000
v 4.325000 7.300000 -0.900000
v 12.950000 8.200000 -1.200000
v 2.057143 0.250000 15.950000
v 12.950000 16.600000 16.950001
v 12.950000 15.600000 17.700001
v 12.950000 7.800000 20.400000
v 12.950000 8.200000 19.200001
v 12.950000 8.200000 20.400000
v 12.950000 5.600000 19.100000
v 12.950000 5.600000 17.700001
v 1.450000 16.600000 16.950001
v 1.450000 15.600000 17.700001
v 1.450000 8.200000 19.200001
v 1.450000 7.800000 20.400000
v 1.450000 8.200000 20.400000
v 1.450000 5.600000 19.100000
v 1.450000 5.600000 17.700001
vn 1.000000 0.000000 0.000000
vn 1.000000 -0.000000 0.000000
vn 1.000000 -0.000000 0.000000
vn 0.000000 0.000000 -1.000000
vn -0.000000 0.000000 -1.000000
vn -0.000000 0.000000 -1.000000
vn -0.000000 0.000000 -1.000000
vn 0.000000 -0.000000 -1.000000
vn 0.000000 0.000000 -1.000000
vn 0.000000 0.000000 -1.000000
vn 0.000000 0.000000 -1.000000
vn -0.000000 0.000000 -1.000000
vn 0.000000 -0.000000 -1.000000
vn 0.000000 0.000000 -1.000000
vn 0.000000 -0.000000 -1.000000
vn 0.000000 -1.000000 -0.000000
vn 0.000000 -1.000000 -0.000000
vn 0.000000 -1.000000 -0.000000
vn 0.000000 -1.000000 -0.000000
vn 0.000000 -1.000000 -0.000000
vn 0.000000 -1.000000 0.000000
vn -0.000000 -1.000000 -0.000000
vn -0.000000 -1.000000 -0.000000
vn -0.000000 -1.000000 -0.000000
vn -0.000000 -1.000000 -0.000000
vn -0.000000 -1.000000 -0.000000
vn -0.000000 -1.000000 -0.000000
vn -0.000000 -1.000000 -0.000000
vn -0.000000 -1.000000 0.000000
vn 0.000000 -1.000000 0.000000
vn 0.000000 -1.000000 0.000000
vn 0.000000 -1.000000 0.000000
vn 0.000000 -1.000000 0.000000
vn 0.000000 -1.000000 0.000000
vn -0.000000 -1.000000 0.000000
vn 0.000000 -1.000000 0.000000
vn 0.000000 -1.000000 0.000000
vn 0.000000 -1.000000 0.000000
vn 0.000000 -1.000000 0.000000
vn -0.000000 -1.000000 0.000000
vn -0.000000 -1.000000 0.000000
vn 0.000000 -1.000000 0.000000
vn 0.000000 -1.000000 0.000000
vn -0.000000 -1.000000 0.000000
vn 0.000000 -1.000000 0.000000
vn -0.000000 -1.000000 0.000000
vn 0.000000 -1.000000 0.000000
vn -0.000000 -0.707107 0.707106
vn 0.000000 0.000000 1.000000
vn 0.000000 0.000000 1.000000
vn 0.000000 0.000000 1.000000
vn 0.000000 0.000000 1.000000
vn 0.000000 0.000000 1.000000
vn 0.000000 0.000000 1.000000
vn 0.000000 0.000000 1.000000
vn 0.000000 0.000000 1.000000
vn 0.000000 0.000000 1.000000
vn 0.000000 0.000000 1.000000
vn 0.000000 -1.000000 0.000000
vn 0.000000 -1.000000 0.000000
vn 1.000000 0.000000 0.000000
vn 1.000000 -0.000000 0.000000
vn -1.000000 0.000000 0.000000
vn -1.000000 0.000000 0.000000
vn -1.000000 0.000000 0.000000
vn 0.000000 -1.000000 0.000000
vn 0.000000 -1.000000 0.000000
vn -1.000000 0.000000 0.000000
vn -1.000000 0.000000 0.000000
vn 0.000000 1.000000 0.000000
vn 0.000000 1.000000 0.000000
vn 0.000000 1.000000 0.000000
vn 0.000000 1.000000 0.000000
vn 0.000000 1.000000 0.000000
vn 0.000000 1.000000 0.000000
vn 0.000000 1.000000 0.000000
vn 0.000000 1.000000 0.000000
vn 0.000000 1.000000 0.000000
vn 0.000000 1.000000 0.000000
vn 0.000000 1.000000 0.000000
vn 0.000000 1.000000 0.000000
vn 0.000000 1.000000 0.000000
vn 0.000000 1.000000 0.000000
vn 0.000000 1.000000 0.000000
vn 0.000000 1.000000 0.000000
vn 0.000000 1.000000 0.000000
vn 0.000000 1.000000 0.000000
vn 0.000000 1.000000 0.000000
vn 0.000000 1.000000 0.000000
vn 0.000000 1.000000 0.000000
vn 0.000000 1.000000 0.000000
vn 0.000000 1.000000 0.000000
vn 0.000000 1.000000 0.000000
vn 0.000000 1.000000 0.000000
vn 0.000000 1.000000 0.000000
vn 0.000000 1.000000 0.000000
vn 0.000000 1.000000 0.000000
vn 0.000000 1.000000 0.000000
vn 0.000000 1.000000 0.000000
vn 0.000000 1.000000 0.000000
vn 0.000000 1.000000 0.000000
vn 0.000000 1.000000 0.000000
vn 0.000000 1.000000 0.000000
vn 0.000000 1.000000 0.000000
vn 0.000000 1.000000 0.000000
vn -1.000000 0.000000 0.000000
vn -1.000000 0.000000 0.000000
vn -0.000000 -0.514496 -0.857493
vn -0.000000 -0.514496 -0.857493
vn 0.000000 -0.514496 -0.857493
vn -0.000000 -0.514496 -0.857493
vn 1.000000 0.000000 0.000000
vn 1.000000 0.000000 0.000000
vn 0.000000 1.000000 0.000000
vn 0.000000 1.000000 0.000000
vn 0.000000 -0.707107 0.707107
vn 0.000000 -0.707107 0.707107
vn -0.992709 -0.000000 -0.120537
vn -0.935016 -0.000000 -0.354604
vn -0.992709 0.000000 -0.120537
vn -0.822983 -0.000000 -0.568065
vn -0.935016 -0.000000 -0.354604
vn -0.663123 -0.000000 -0.748511
vn -0.822983 -0.000000 -0.568065
vn -0.464724 -0.000000 -0.885456
vn -0.663123 0.000000 -0.748511
vn -0.239316 -0.000000 -0.970942
vn -0.464724 -0.000000 -0.885456
vn -0.239316 0.000000 -0.970942
vn -0.000000 0.000000 -1.000000
vn 0.000000 0.000000 -1.000000
vn 0.239316 -0.000000 -0.970942
vn 0.239316 0.000000 -0.970942
vn 0.464724 0.000000 -0.885456
vn 0.663123 0.000000 -0.748511
vn 0.464724 0.000000 -0.885456
vn 0.822984 0.000000 -0.568065
vn 0.663123 -0.000000 -0.748511
vn 0.822984 -0.000000 -0.568065
vn 0.935016 0.000000 -0.354605
vn 0.935016 0.000000 -0.354605
vn 0.992709 -0.000000 -0.120537
vn 0.992709 0.000000 -0.120537
vn 1.000000 -0.000000 0.000000
vn 1.000000 0.000000 0.000000
vn 0.992709 0.000000 0.120537
vn 0.992709 0.000000 0.120537
vn 0.935016 -0.000000 0.354605
vn 0.935016 -0.000000 0.354605
vn 0.822984 0.000000 0.568065
vn 0.822984 -0.000000 0.568065
vn 0.663123 0.000000 0.748511
vn 0.663123 -0.000000 0.748511
vn 0.464723 0.000000 0.885456
vn 0.464723 -0.000000 0.885456
vn 0.239316 0.000000 0.970942
vn 0.239316 -0.000000 0.970942
vn -0.000000 0.000000 1.000000
vn 0.000000 0.000000 1.000000
vn -0.239316 -0.000000 0.970942
vn -0.239316 0.000000 0.970942
vn -0.464723 -0.000000 0.885456
vn -0.464723 0.000000 0.885456
vn -0.663123 -0.000000 0.748511
vn -0.663123 0.000000 0.748511
vn -0.822984 0.000000 0.568065
vn -0.822984 0.000000 0.568065
vn -0.935016 -0.000000 0.354604
vn -0.992709 0.000000 0.120537
vn -0.935016 0.000000 0.354604
vn -0.992709 0.000000 0.120537
vn -1.000000 0.000000 0.000000
vn -1.000000 0.000000 0.000000
vn 0.000000 -0.707108 0.707105
vn 0.000000 -0.707108 0.707105
vn 1.000000 -0.000000 0.000000
vn 1.000000 0.000000 0.000000
vn 1.000000 -0.000000 0.000000
vn 1.000000 -0.000000 0.000000
vn 1.000000 0.000000 0.000000
vn 1.000000 -0.000000 0.000000
vn 1.000000 0.000000 0.000000
vn 1.000000 0.000000 0.000000
vn 0.000000 -0.600000 0.800000
vn 0.000000 -0.600000 0.800000
vn -1.000000 0.000000 0.000000
vn -1.000000 0.000000 0.000000
vn -1.000000 0.000000 0.000000
vn -1.000000 0.000000 0.000000
vn -1.000000 0.000000 0.000000
vn -1.000000 0.000000 0.000000
vn -1.000000 0.000000 0.000000
vn -1.000000 0.000000 0.000000
vn 0.000000 -0.707107 0.707106
vn 0.000000 0.000000 1.000000
vn 0.000000 0.000000 1.000000
vn 0.000000 0.000000 -1.000000
vn 0.000000 0.000000 -1.000000
vn 0.000000 -0.514496 -0.857493
vn 0.000000 -0.514496 -0.857493
vn 0.000000 -1.000000 0.000000
vn 0.000000 -1.000000 0.000000
vn 0.000000 0.000000 -1.000000
vn 0.000000 0.000000 -1.000000
vn 0.000000 -0.600000 -0.800000
vn 0.000000 -0.600000 -0.800000
vn 0.000000 1.000000 0.000000
vn 0.000000 1.000000 0.000000
vn 0.000000 0.000000 1.000000
vn 0.000000 0.000000 1.000000
vn 0.000000 -0.508729 0.860927
vn 0.000000 -0.508729 0.860927
f 1//1 2//1 3//1
f 1//2 3//2 4//2
f 5//3 1//3 4//3
f 6//4 7//4 3//4
f 8//5 2//5 9//5
f 8//6 10//6 2//6
f 11//7 3//7 12//7
f 13//8 3//8 11//8
f 14//9 13//9 15//9
f 14//10 6//10 3//10
f 14//11 3//11 13//11
f 3//12 2//12 10//12
f 3//13 10//13 12//13
f 9//14 13//14 11//14
f 9//15 11//15 8//15
f 16//16 17//16 18//16
f 19//17 18//17 17//17
f 20//18 17//18 16//18
f 21//19 19//19 17//19
f 22//20 17//20 20//20
f 23//21 21//21 17//21
f 24//22 17//22 22//22
f 1//23 25//23 26//23
f 1//24 27//24 25//24
f 1//25 28//25 27//25
f 1//26 24//26 28//26
f 1//27 17//27 24//27
f 29//28 1//28 26//28
f 30//29 1//29 29//29
f 9//30 31//30 32//30
f 9//31 32//31 23//31
f 9//32 23//32 17//32
f 33//33 31//33 9//33
f 34//34 33//34 9//34
f 35//35 34//35 9//35
f 36//36 35//36 9//36
f 37//37 36//37 9//37
f 38//38 37//38 9//38
f 2//39 30//39 39//39
f 2//40 40//40 38//40
f 2//41 41//41 40//41
f 2//42 42//42 41//42
f 2//43 43//43 42//43
f 2//44 44//44 43//44
f 2//45 39//45 44//45
f 2//46 1//46 30//46
f 2//47 38//47 9//47
f 1//48 5//48 45//48
f 46//49 47//49 48//49
f 49//50 47//50 46//50
f 50//51 49//51 46//51
f 4//52 48//52 51//52
f 4//53 51//53 5//53
f 4//54 46//54 48//54
f 52//55 4//55 53//55
f 52//56 46//56 4//56
f 54//57 55//57 52//57
f 54//58 52//58 53//58
f 3//59 53//59 4//59
f 7//60 53//60 3//60
f 53//61 7//61 6//61
f 53//62 6//62 54//62
f 17//63 51//63 48//63
f 13//64 17//64 48//64
f 9//65 17//65 13//65
f 15//66 48//66 47//66
f 13//67 48//67 15//67
f 14//68 47//68 49//68
f 15//69 47//69 14//69
f 56//70 14//70 57//70
f 58//71 57//71 14//71
f 59//72 14//72 56//72
f 60//73 58//73 14//73
f 61//74 14//74 59//74
f 62//75 60//75 14//75
f 63//76 14//76 61//76
f 64//77 62//77 14//77
f 49//78 64//78 14//78
f 65//79 64//79 49//79
f 6//80 63//80 66//80
f 6//81 66//81 67//81
f 6//82 67//82 68//82
f 6//83 68//83 69//83
f 6//84 69//84 70//84
f 6//85 14//85 63//85
f 71//86 6//86 70//86
f 50//87 72//87 73//87
f 50//88 73//88 65//88
f 50//89 65//89 49//89
f 74//90 72//90 50//90
f 75//91 74//91 50//91
f 76//92 75//92 50//92
f 77//93 75//93 76//93
f 78//94 6//94 71//94
f 79//95 77//95 76//95
f 55//96 80//96 81//96
f 55//97 81//97 82//97
f 55//98 82//98 83//98
f 55//99 83//99 84//99
f 54//100 80//100 55//100
f 54//101 78//101 80//101
f 54//102 6//102 78//102
f 85//103 84//103 79//103
f 85//104 79//104 76//104
f 85//105 55//105 84//105
f 86//106 11//106 87//106
f 8//107 11//107 86//107
f 88//108 89//108 10//108
f 8//109 90//109 88//109
f 8//110 86//110 90//110
f 8//111 88//111 10//111
f 12//112 89//112 91//112
f 10//113 89//113 12//113
f 12//114 87//114 11//114
f 12//115 91//115 87//115
f 17//116 1//116 45//116
f 17//117 45//117 92//117
f 78//118 30//118 80//118
f 80//119 29//119 81//119
f 30//120 29//120 80//120
f 81//121 26//121 82//121
f 29//122 26//122 81//122
f 82//123 25//123 83//123
f 26//124 25//124 82//124
f 83//125 27//125 84//125
f 25//126 27//126 83//126
f 84//127 28//127 79//127
f 27//128 28//128 84//128
f 28//129 24//129 79//129
f 79//130 22//130 77//130
f 24//131 22//131 79//131
f 77//132 20//132 75//132
f 22//133 20//133 77//133
f 75//134 16//134 74//134
f 74//135 16//135 72//135
f 20//136 16//136 75//136
f 72//137 18//137 73//137
f 16//138 18//138 72//138
f 18//139 19//139 73//139
f 73//140 21//140 65//140
f 19//141 21//141 73//141
f 65//142 23//142 64//142
f 21//143 23//143 65//143
f 23//144 32//144 64//144
f 64//145 32//145 62//145
f 62//146 32//146 60//146
f 32//147 31//147 60//147
f 60//148 33//148 58//148
f 31//149 33//149 60//149
f 58//150 34//150 57//150
f 33//151 34//151 58//151
f 57//152 35//152 56//152
f 34//153 35//153 57//153
f 56//154 36//154 59//154
f 35//155 36//155 56//155
f 59//156 37//156 61//156
f 36//157 37//157 59//157
f 61//158 38//158 63//158
f 37//159 38//159 61//159
f 63//160 40//160 66//160
f 38//161 40//161 63//161
f 66//162 41//162 67//162
f 40//163 41//163 66//163
f 67//164 42//164 68//164
f 41//165 42//165 67//165
f 68//166 43//166 69//166
f 42//167 43//167 68//167
f 69//168 44//168 70//168
f 70//169 44//169 71//169
f 43//170 44//170 69//170
f 44//171 39//171 71//171
f 39//172 30//172 78//172
f 39//173 78//173 71//173
f 5//174 51//174 45//174
f 45//175 51//175 92//175
f 93//176 55//176 85//176
f 52//177 55//177 93//177
f 94//178 93//178 85//178
f 95//179 96//179 97//179
f 98//180 96//180 95//180
f 98//181 99//181 96//181
f 99//182 94//182 96//182
f 85//183 96//183 94//183
f 100//184 46//184 52//184
f 100//185 52//185 93//185
f 100//186 76//186 50//186
f 101//187 76//187 100//187
f 46//188 100//188 50//188
f 102//189 103//189 104//189
f 105//190 103//190 102//190
f 106//191 105//191 102//191
f 101//192 106//192 102//192
f 102//193 76//193 101//193
f 92//194 51//194 17//194
f 96//195 76//195 102//195
f 85//196 76//196 96//196
f 86//197 91//197 89//197
f 87//198 91//198 86//198
f 86//199 89//199 90//199
f 90//200 89//200 88//200
f 99//201 98//201 105//201
f 99//202 105//202 106//202
f 106//203 94//203 99//203
f 101//204 94//204 106//204
f 101//205 100//205 93//205
f 101//206 93//206 94//206
f 97//207 96//207 102//207
f 97//208 102//208 104//208
f 95//209 104//209 103//209
f 97//210 104//210 95//210
f 105//211 98//211 95//211
f 103//212 105//212 95//212
